/* XPM */
static char *_25c6670c1b147f9b45ee67c89f5dd63pl0IZToLYbcB8gfh[] = {
/* columns rows colors chars-per-pixel */
"32 32 56 1 ",
"  c #193C3E",
". c #265C42",
"X c #426852",
"o c #B86F50",
"O c #3E8948",
"+ c #4F8F55",
"@ c #518F56",
"# c #659867",
"$ c #6D9C6E",
"% c #76A176",
"& c #C1A57F",
"* c #E4A672",
"= c #90AE8C",
"- c #96B291",
"; c #9DB99A",
": c #BEAFA3",
"> c #C1A285",
", c #C4AF9C",
"< c #C9BB96",
"1 c #D1B695",
"2 c #D5B996",
"3 c #C9B6A1",
"4 c #C9BEB4",
"5 c #BAC7B1",
"6 c #BCC7B1",
"7 c #D7C09B",
"8 c #D2C1A3",
"9 c #DEC6A0",
"0 c #D9D1A9",
"q c #DED8AC",
"w c #C7C2B5",
"e c #D2C3B3",
"r c #D7C9B6",
"t c #E5CDA5",
"y c #E8CFA6",
"u c #EAD5AA",
"i c #EAD7AC",
"p c #EDDFB2",
"a c #E7E0B0",
"s c #EAE5B6",
"d c #F0EDBD",
"f c #F2F0BE",
"g c #D4CFC3",
"h c #D4D0C3",
"j c #D8D2C7",
"k c #DEE3D3",
"l c #F3EAC2",
"z c #F4EDC2",
"x c #F3F2C0",
"c c #E3E3D5",
"v c #E4E4D7",
"b c #F3EAD0",
"n c #F3EFDD",
"m c #F3F3D3",
"M c #F4F5D7",
"N c #F3F3D9",
/* pixels */
"********************************",
"********************************",
"********************************",
"********************************",
"********************************",
"***********ooo****ooo***********",
"*********ooo  oooo  ooo*********",
"********oo  .. oo ..  ooo*******",
"*******o   .O..  ....   oo******",
"******* .. .OO.  .OO. .. oo*****",
"******* .O.OOOO..OOOO... oo*****",
"******* .OOOOO-kk-OOOOO. oo*****",
"*******  .OOO=r&&r=OOO.  oo*****",
"****** ..OOO;3azMa:;OOO.. oo****",
"****** .OOO$esmblx94$OOO. oo****",
"******o ..O68dnNxxt,5O.. oo*****",
"******* ..Ov<xxxxpy>vO.. oo*****",
"****** .OOOv<xxxfiy>vOOO. oo****",
"****** ..OOc<xxxuyy>cOO.. oo****",
"******o  .O#w0q7221w#O.  oo*****",
"******* .OOO%gjjjjh%OO.. oo*****",
"******* .O.OO+@XX@+OO... oo*****",
"******* .. .OO.  .OO. .. oo*****",
"*******o   .O..  ....   oo******",
"********oo  .. oo ..  ooo*******",
"*********ooo  oooo  ooo*********",
"***********ooo****ooo***********",
"********************************",
"********************************",
"********************************",
"********************************",
"********************************"
};
