/* XPM */
static char *_10d990f5c26481c9017c01c602380aeOec0YgrdgvzC4qeh[] = {
/* columns rows colors chars-per-pixel */
"32 32 16 1 ",
"  c #122E30",
". c #193C3E",
"X c #3F2832",
"o c #5E2C26",
"O c #743F39",
"+ c #1C4833",
"@ c #306D38",
"# c #265C42",
"$ c #3A4466",
"% c #91533B",
"& c #B86F50",
"* c #3E8948",
"= c #C58972",
"- c #E4A672",
"; c #5A6988",
": c #8B9BB4",
/* pixels */
"--------------------------------",
"--------------------------------",
"--------------------------------",
"--------------------------------",
"--------------------------------",
"-----------&&&----&&&-----------",
"---------&&&..&&&&..&&&---------",
"--------&&..##.&&.##..&&&-------",
"-------&.XXXXXXXXXXXXXX.&&------",
"-------.X%%$$%%%%%%$$%%X.&&-----",
"-------.X&&;;&&&&&&;;&&X.&&-----",
"-------.X==::======::==X.&&-----",
"-------.X==::======::==X.&&-----",
"------.#X&&;;&&&&&&;;&&X#.&&----",
"------.#X%%;;&&&&&&;;%%X#.&&----",
"------&.X%%$$%%::%%$$%%X.&&-----",
"-------.XXXXXXX:;XXXXXXX.&&-----",
"------.#*X%OOXo;$oXOO%X@#.&&----",
"------.##XOOOXoOoOXOOOX+#.&&----",
"------&..XOO%XOOOOX%OOX .&&-----",
"-------.#X%%%X%%%%X%%%X+.&&-----",
"-------.#@XXXXXXXXXXXX++.&&-----",
"-------.#+ +@@+  +@@+ ++.&&-----",
"-------&.. +@++  ++++  .&&------",
"--------&&..##.&&.##..&&&-------",
"---------&&&..&&&&..&&&---------",
"-----------&&&----&&&-----------",
"--------------------------------",
"--------------------------------",
"--------------------------------",
"--------------------------------",
"--------------------------------"
};
