/* XPM */
static char *_f18edfb1bbe470cfe1fe3fb2b154f2bcGkdx9ucnDHNKyWY[] = {
/* columns rows colors chars-per-pixel */
"32 32 5 1 ",
"  c #193C3E",
". c #265C42",
"X c #B86F50",
"o c #3E8948",
"O c #E4A672",
/* pixels */
"OOOOOOOOOOOOOOOOOOOOOOOOOOOOOOOO",
"OOOOOOOOOOOOOOOOOOOOOOOOOOOOOOOO",
"OOOOOOOOOOOOOOOOOOOOOOOOOOOOOOOO",
"OOOOOOOOOOOOOOOOOOOOOOOOOOOOOOOO",
"OOOOOOOOOOOOOOOOOOOOOOOOOOOOOOOO",
"OOOOOOOOOOOXXXOOOOXXXOOOOOOOOOOO",
"OOOOOOOOOXXX  XXXX  XXXOOOOOOOOO",
"OOOOOOOOXX  .. XX ..  XXXOOOOOOO",
"OOOOOOOX   .o..  ....   XXOOOOOO",
"OOOOOOO .. .oo.  .oo. .. XXOOOOO",
"OOOOOOO .o.oooo..oooo... XXOOOOO",
"OOOOOOO .oooooooooooooo. XXOOOOO",
"OOOOOOO  .oooooooooooo.  XXOOOOO",
"OOOOOO ..oooooooooooooo.. XXOOOO",
"OOOOOO .oooooooooooooooo. XXOOOO",
"OOOOOOX ..oooooooooooo.. XXOOOOO",
"OOOOOOO ..oooooooooooo.. XXOOOOO",
"OOOOOO .oooooooooooooooo. XXOOOO",
"OOOOOO ..oooooooooooooo.. XXOOOO",
"OOOOOOX  .oooooooooooo.  XXOOOOO",
"OOOOOOO .ooooooooooooo.. XXOOOOO",
"OOOOOOO .o.oooo..oooo... XXOOOOO",
"OOOOOOO .. .oo.  .oo. .. XXOOOOO",
"OOOOOOOX   .o..  ....   XXOOOOOO",
"OOOOOOOOXX  .. XX ..  XXXOOOOOOO",
"OOOOOOOOOXXX  XXXX  XXXOOOOOOOOO",
"OOOOOOOOOOOXXXOOOOXXXOOOOOOOOOOO",
"OOOOOOOOOOOOOOOOOOOOOOOOOOOOOOOO",
"OOOOOOOOOOOOOOOOOOOOOOOOOOOOOOOO",
"OOOOOOOOOOOOOOOOOOOOOOOOOOOOOOOO",
"OOOOOOOOOOOOOOOOOOOOOOOOOOOOOOOO",
"OOOOOOOOOOOOOOOOOOOOOOOOOOOOOOOO"
};
