/* XPM */
static char *_a051e3e0d0d452eaedcf6307547c806jbfQWIZDu1VAiipM[] = {
/* columns rows colors chars-per-pixel */
"32 32 15 1 ",
"  c #0E071B",
". c #193C3E",
"X c #265C42",
"o c #676E6F",
"O c #697A70",
"+ c #891E2B",
"@ c #C42430",
"# c #B86F50",
"$ c #3E8948",
"% c #6F9072",
"& c #FFA214",
"* c #FFC825",
"= c #E4A672",
"- c #F9E6CF",
"; c white",
/* pixels */
"================================",
"================================",
"================================",
"================================",
"================================",
"===========###====###===========",
"=========###..####..###=========",
"========##..XX.##.XX..###=======",
"=======#...X$XX..XXXX...##======",
"=======.XX.X$$X   $$X.XX.##=====",
"=======.X$X$$$ +@@ $$XXX.##=====",
"=======.X$$$$$$ +@  $$$X.##=====",
"=======..X $ $$ ;;;; $X..##=====",
"======.XX ; - $ ; ;;& $XX.##====",
"======.X$ -;;- -; ;&& $$X.##====",
"======#.XX -;;;;;;;  $XX.##=====",
"=======.X ---; ;;;-; $XX.##=====",
"======.X$$  --;  -;- $$$X.##====",
"======.XX$$$  -;-;- $$$XX.##====",
"======#..X$$$$     $$$X..##=====",
"=======.X$$%% && * %%$XX.##=====",
"=======.X$O%% & O * %OXX.##=====",
"=======.XXoO%%OooO%%OoXX.##=====",
"=======#...O%OOooOOOO...##======",
"========##..XX.##.XX..###=======",
"=========###..####..###=========",
"===========###====###===========",
"================================",
"================================",
"================================",
"================================",
"================================"
};
